<svg width="20" height="20" viewBox="0 0 20 20" fill="none" xmlns="http://www.w3.org/2000/svg">
<mask id="mask0_1_134" style="mask-type:luminance" maskUnits="userSpaceOnUse" x="0" y="5" width="5" height="10">
<path fill-rule="evenodd" clip-rule="evenodd" d="M0 5.40112H4.43237V14.7389H0V5.40112Z" fill="white"/>
</mask>
<g mask="url(#mask0_1_134)">
<path fill-rule="evenodd" clip-rule="evenodd" d="M4.43238 12.0861L3.73625 14.6851L1.19172 14.7389C0.431367 13.3285 0 11.7147 0 9.99995C0 8.34179 0.403281 6.77792 1.11816 5.40112H1.11863L3.38395 5.81628L4.37637 8.06804C4.16871 8.67366 4.05547 9.32354 4.05547 9.99995C4.05547 10.7341 4.18855 11.4373 4.43238 12.0861Z" fill="#FBBB00"/>
</g>
<mask id="mask1_1_134" style="mask-type:luminance" maskUnits="userSpaceOnUse" x="10" y="8" width="10" height="10">
<path fill-rule="evenodd" clip-rule="evenodd" d="M10.2198 8.13184H20V17.7983H10.2198V8.13184Z" fill="white"/>
</mask>
<g mask="url(#mask1_1_134)">
<path fill-rule="evenodd" clip-rule="evenodd" d="M19.8252 8.13184C19.9401 8.73668 20 9.36152 20 9.99996C20 10.7159 19.9247 11.4143 19.7813 12.0878C19.2945 14.3802 18.0226 16.3818 16.2605 17.7983L16.2599 17.7978L13.4066 17.6523L13.0027 15.1313C14.172 14.4456 15.0857 13.3725 15.5671 12.0878H10.2198V8.13184H19.8252Z" fill="#518EF8"/>
</g>
<path fill-rule="evenodd" clip-rule="evenodd" d="M16.26 17.7979L16.2604 17.7984C14.5467 19.176 12.3697 20.0001 10.0001 20.0001C6.19177 20.0001 2.88076 17.8715 1.19177 14.7392L4.43244 12.0864C5.27701 14.3401 7.45107 15.9446 10.0001 15.9446C11.0956 15.9446 12.1221 15.6485 13.0028 15.1315L16.26 17.7979Z" fill="#28B446"/>
<path fill-rule="evenodd" clip-rule="evenodd" d="M16.3829 2.30227L13.1434 4.95437C12.2319 4.38461 11.1543 4.05547 10 4.05547C7.39336 4.05547 5.17848 5.73348 4.37637 8.06809L1.11863 5.40117H1.11816C2.78242 2.19223 6.13512 0 10 0C12.4263 0 14.651 0.864258 16.3829 2.30227Z" fill="#F14336"/>
</svg>
