<svg width="17" height="20" viewBox="0 0 17 20" fill="none" xmlns="http://www.w3.org/2000/svg">
<mask id="mask0_1_146" style="mask-type:luminance" maskUnits="userSpaceOnUse" x="0" y="0" width="17" height="21">
<path fill-rule="evenodd" clip-rule="evenodd" d="M0 0.000488281H16.2848V20.0014H0V0.000488281Z" fill="white"/>
</mask>
<g mask="url(#mask0_1_146)">
<path fill-rule="evenodd" clip-rule="evenodd" d="M13.6047 10.629C13.6167 9.07 14.4327 7.633 15.7647 6.82C14.9247 5.613 13.5697 4.871 12.1047 4.82C10.5417 4.66 9.10474 5.73 8.27274 5.73C7.44474 5.73 6.27274 4.84 4.97174 4.859C3.24574 4.918 1.67474 5.879 0.83474 7.391C-0.92626 10.449 0.38174 15 2.14374 17.469C2.94474 18.68 3.94474 20.051 5.26474 20C6.58474 19.949 7.01474 19.18 8.54274 19.18C10.0737 19.18 10.5417 20 11.8427 19.969C13.1437 19.942 14.0657 18.731 14.9057 17.52C15.4997 16.641 15.9637 15.68 16.2847 14.672C14.6637 13.981 13.6087 12.391 13.6047 10.629ZM11.0847 3.191C11.8467 2.309 12.2297 1.16 12.1437 0C10.9837 0.094 9.90574 0.641 9.14374 1.52C8.40574 2.371 8.04574 3.488 8.14374 4.609C9.29274 4.621 10.3777 4.094 11.0847 3.191Z" fill="#1D1D1B"/>
</g>
</svg>
